<svg id="Ebene_1" data-name="Ebene 1" xmlns="http://www.w3.org/2000/svg" viewBox="0 0 150 150"><defs><style>.cls-1{fill:#fff;}</style></defs><title>glf</title><path class="cls-1" d="M44.83,100a28.14,28.14,0,0,1-9.69-1.62,22.6,22.6,0,0,1-7.73-4.65,21.48,21.48,0,0,1-5.14-7.32,25.6,25.6,0,0,1,0-19.21,22.06,22.06,0,0,1,5.11-7.36A22.67,22.67,0,0,1,35,55.16a26.2,26.2,0,0,1,9.35-1.65,28.59,28.59,0,0,1,9.82,1.68,20.34,20.34,0,0,1,7.57,4.61L53.06,70.22a10.52,10.52,0,0,0-3.24-2.59,10,10,0,0,0-4.61-1,9.21,9.21,0,0,0-6.55,2.78,10.43,10.43,0,0,0-2.93,7.39,11.41,11.41,0,0,0,2.4,7.51q2.4,2.9,7.7,2.9a12.47,12.47,0,0,0,1.93-.15,4.82,4.82,0,0,0,1.56-.47l.09-3.85H42.3l-.09-10.61H62.47V95.72a23,23,0,0,1-3.58,1.71,35.61,35.61,0,0,1-4.3,1.34,46.22,46.22,0,0,1-4.77.9A36.56,36.56,0,0,1,44.83,100Z"/><path class="cls-1" d="M76,85.57q-3.73-1.25-5.9-6.33l-2.55-5.93L65.77,74V98H93.83V86H80.73A15.28,15.28,0,0,1,76,85.57Z"/><polygon class="cls-1" points="126.67 67.17 126.67 55.15 113.5 55.15 102.3 82.99 96.86 82.98 96.86 98.12 111.45 98.12 111.45 82.77 124.86 82.77 124.86 72.17 111.39 72.17 111.39 67.17 126.67 67.17"/><path class="cls-1" d="M101.93,49.81l-5.85,20H95.9L90.52,54.37l-15.12,6-2-4.78-9.07,3.71,2,4.78-3,1.21L66.1,72l3-1.23,3.11,7.61q1.59,3.89,4.41,4.89t7.11-.76a19.94,19.94,0,0,0,2.69-1.34,10.79,10.79,0,0,0,2-1.47L85.49,73.5a6.43,6.43,0,0,1-.62.42,5,5,0,0,1-.83.4,3,3,0,0,1-2.07.21q-.89-.27-1.52-1.81L78.13,67l5.51-2.33,7.75,16.46,9-.05,12.7-31.36Z"/><polygon class="cls-1" points="74.09 52.98 76.05 57.76 80.58 55.82 80.58 47.43 65.77 47.43 65.77 56.4 74.09 52.98"/></svg>