<?xml version="1.0" encoding="utf-8"?>
<!-- Generator: Adobe Illustrator 21.1.0, SVG Export Plug-In . SVG Version: 6.00 Build 0)  -->
<svg version="1.1" id="Ebene_1" xmlns="http://www.w3.org/2000/svg" xmlns:xlink="http://www.w3.org/1999/xlink" x="0px" y="0px"
	 viewBox="0 0 841.9 595.3" style="enable-background:new 0 0 841.9 595.3;" xml:space="preserve">
<style type="text/css">
	.st0{fill:#FFFFFF;}
</style>
<path class="st0" d="M484.4,260.3c0,35.2,28.3,63.5,63.5,63.5s63.5-28.3,63.5-63.5s-28.3-63.5-63.5-63.5
	C512.7,196.9,484.4,225.1,484.4,260.3"/>
<path class="st0" d="M838.3,427.5c-57.8,100.6-166.5,167.8-290.4,167.8S316,528.1,257.5,428.1l54.7-32.1
	c47.1,81.1,134.5,135.7,235,135.7S735.7,477,782.9,396L838.3,427.5z"/>
<path class="st0" d="M784.2,196.9c5.7,20.1,8.2,41.5,8.2,62.8c0,135.1-109.4,244.5-244.5,244.5c-67.9,0-128.8-27.7-172.8-71.6
	l44.6-44.6c32.7,32.7,77.9,53.4,128.2,53.4c99.9,0,181-81.1,181-181c0-16.3-1.9-32.1-6.3-46.5L784.2,196.9z"/>
<path class="st0" d="M588.1,111.4c65.4,17.6,113.8,77.3,113.8,148.9c0,84.8-69.1,154-154,154c-13.8,0-27-1.9-39.6-5l16.3-61.6
	c7.5,1.9,15.1,3.1,23.3,3.1c50.3,0,90.5-40.9,90.5-90.5c0-42.1-28.3-77.3-66.6-87.4L588.1,111.4z"/>
<polygon class="st0" points="3.7,355.9 3.7,152.9 29.4,152.9 29.4,240.2 100.4,240.2 100.4,152.9 126.8,152.9 126.8,355.9 
	100.4,355.9 100.4,262.9 29.4,262.9 29.4,355.9 "/>
<polygon class="st0" points="162,355.9 162,152.9 262.6,152.9 262.6,175.5 187.8,175.5 187.8,240.2 258.8,240.2 258.8,262.9 
	187.8,262.9 187.8,355.9 "/>
<path class="st0" d="M283.9,152.9h25.8V283c0,44.6,13.2,55.9,37.7,55.9s37.7-11.3,37.7-55.9V152.9h25.8v128.8
	c0,55.9-20.7,78.6-63.5,78.6c-42.7,0-63.5-22-63.5-78.6V152.9z"/>
</svg>
