<?xml version="1.0" encoding="utf-8"?>
<!-- Generator: Adobe Illustrator 21.1.0, SVG Export Plug-In . SVG Version: 6.00 Build 0)  -->
<svg version="1.1" id="Ebene_1" xmlns="http://www.w3.org/2000/svg" xmlns:xlink="http://www.w3.org/1999/xlink" x="0px" y="0px"
	 viewBox="0 0 80 41.1" style="enable-background:new 0 0 80 41.1;" xml:space="preserve">
<style type="text/css">
	.st0{fill:#C6C6C6;}
	.st1{fill:#FFFFFF;}
</style>
<polygon class="st0" points="36.3,25.3 36.3,11.9 43.6,10.1 43.6,25.3 "/>
<polygon class="st0" points="10,25.3 10,13.8 21.4,8.2 21.4,25.3 "/>
<g>
	<path class="st1" d="M10,27.5h3.5v1h-2.2v1.3h1.9v1h-1.9V33H10L10,27.5L10,27.5z"/>
	<path class="st1" d="M16.7,31.7H15L14.7,33h-1.3l1.7-5.5h1.5l1.7,5.5H17L16.7,31.7z M16.4,30.7l-0.1-0.5c-0.2-0.6-0.3-1.2-0.4-1.8
		h0c-0.1,0.6-0.3,1.2-0.4,1.8l-0.1,0.5H16.4z"/>
	<path class="st1" d="M18.9,27.5h1.2v2.3h0l1.6-2.3h1.4l-1.7,2.2l2,3.3h-1.4l-1.3-2.3l-0.6,0.8V33h-1.2L18.9,27.5L18.9,27.5z"/>
	<path class="st1" d="M23.9,27.5h1.2v3.1c0,1.1,0.3,1.4,0.9,1.4s1-0.4,1-1.4v-3.1h1.2v2.9c0,1.8-0.8,2.6-2.2,2.6
		c-1.4,0-2.2-0.8-2.2-2.6L23.9,27.5L23.9,27.5z"/>
	<path class="st1" d="M29.5,27.5h1.2v4.5h2.2v1h-3.4L29.5,27.5L29.5,27.5z"/>
	<path class="st1" d="M33.9,28.5h-1.5v-1h4.3v1h-1.5V33h-1.2V28.5z"/>
	<path class="st1" d="M39.8,31.7h-1.7L37.8,33h-1.3l1.7-5.5h1.5l1.7,5.5h-1.3L39.8,31.7z M37.5,26.5c0-0.3,0.2-0.6,0.6-0.6
		s0.6,0.3,0.6,0.6s-0.2,0.6-0.6,0.6C37.8,27.1,37.5,26.8,37.5,26.5z M39.5,30.7l-0.1-0.5c-0.2-0.6-0.3-1.2-0.4-1.8h0
		c-0.1,0.6-0.3,1.2-0.4,1.8l-0.1,0.5H39.5z M39.2,26.5c0-0.3,0.2-0.6,0.6-0.6c0.4,0,0.6,0.3,0.6,0.6s-0.2,0.6-0.6,0.6
		C39.4,27.1,39.2,26.8,39.2,26.5z"/>
	<path class="st1" d="M42.8,28.5h-1.5v-1h4.3v1H44V33h-1.2V28.5z"/>
	<path class="st1" d="M46.5,31.4c0.4,0.3,0.9,0.6,1.3,0.6c0.5,0,0.8-0.2,0.8-0.5c0-0.3-0.3-0.5-0.8-0.7l-0.7-0.3
		C46.6,30.3,46,29.8,46,29c0-0.9,0.8-1.6,2-1.6c0.6,0,1.3,0.3,1.8,0.7l-0.6,0.8c-0.4-0.3-0.7-0.4-1.2-0.4c-0.4,0-0.7,0.2-0.7,0.5
		c0,0.3,0.4,0.5,0.8,0.7l0.7,0.3c0.7,0.3,1.1,0.7,1.1,1.5c0,0.9-0.8,1.7-2.1,1.7c-0.7,0-1.5-0.3-2-0.8L46.5,31.4z"/>
	<path class="st1" d="M50.8,27.5h1.9c1.2,0,2,0.3,2,1.4c0,0.5-0.3,1-0.9,1.2v0c0.8,0.1,1.2,0.6,1.2,1.3c0,1.1-0.9,1.6-2.1,1.6h-2
		L50.8,27.5L50.8,27.5z M52.6,29.7c0.6,0,0.9-0.3,0.9-0.7c0-0.4-0.3-0.6-0.9-0.6h-0.6v1.3H52.6z M52.8,32c0.7,0,1-0.3,1-0.8
		c0-0.5-0.3-0.7-1-0.7h-0.7V32H52.8L52.8,32z"/>
	<path class="st1" d="M55.9,27.5h1.2v4.5h2.2v1h-3.4V27.5z"/>
	<path class="st1" d="M59.7,30.2c0-1.8,1-2.8,2.5-2.8c1.5,0,2.5,1,2.5,2.8c0,1.8-1,2.9-2.5,2.9C60.7,33.1,59.7,32,59.7,30.2z
		 M63.4,30.2c0-1.1-0.5-1.8-1.2-1.8c-0.7,0-1.2,0.7-1.2,1.8s0.5,1.8,1.2,1.8C62.9,32,63.4,31.3,63.4,30.2z"/>
	<path class="st1" d="M68.2,27.4c0.8,0,1.3,0.3,1.7,0.7l-0.7,0.8c-0.3-0.3-0.5-0.4-1-0.4c-0.8,0-1.4,0.7-1.4,1.8
		c0,1.1,0.5,1.8,1.5,1.8c0.2,0,0.4-0.1,0.6-0.2v-0.9H68v-1h2v2.5c-0.4,0.3-1.1,0.7-1.8,0.7c-1.5,0-2.7-1-2.7-2.8
		C65.5,28.4,66.7,27.4,68.2,27.4z"/>
</g>
<polygon class="st1" points="22.2,25.3 22.2,8.1 35.5,11.9 35.5,25.3 "/>
<polygon class="st1" points="44.4,25.3 44.4,10.1 69.9,17.9 69.9,25.3 "/>
</svg>
