<svg id="Ebene_1" data-name="Ebene 1" xmlns="http://www.w3.org/2000/svg" viewBox="0 0 150 150"><defs><style>.cls-1{fill:#fff;}</style></defs><title>xing</title><g id="layer1"><path id="path19359" class="cls-1" d="M48.86,47.2A2,2,0,0,0,47,48a2.06,2.06,0,0,0,.08,2l9,15.51a.07.07,0,0,1,0,.08L42,90.5a2.05,2.05,0,0,0,0,2,2,2,0,0,0,1.73.9H57c2,0,2.94-1.34,3.61-2.56l14.31-25.3L65.8,49.68a4.09,4.09,0,0,0-3.69-2.49Z"/><path id="path19375" class="cls-1" d="M104.54,29c-2,0-2.84,1.25-3.55,2.52L71.5,83.87l18.83,34.55A4.14,4.14,0,0,0,94,121h13.24a2,2,0,0,0,1.76-.85,2.07,2.07,0,0,0,0-2L90.32,83.92a.08.08,0,0,1,0-.09l29.35-51.89a2.08,2.08,0,0,0,0-2,2,2,0,0,0-1.76-.85Z"/></g></svg>