<?xml version="1.0" encoding="utf-8"?>
<!-- Generator: Adobe Illustrator 22.1.0, SVG Export Plug-In . SVG Version: 6.00 Build 0)  -->
<svg version="1.1" id="Ebene_1" xmlns="http://www.w3.org/2000/svg" xmlns:xlink="http://www.w3.org/1999/xlink" x="0px" y="0px"
	 viewBox="0 0 512 512" style="enable-background:new 0 0 512 512;" xml:space="preserve">
<style type="text/css">
	.st0{fill:#FFFFFF;}
</style>
<path class="st0" d="M256,128.4c41.6,0,46.5,0.2,62.9,0.9c15.2,0.7,23.4,3.2,28.9,5.4c6.7,2.5,12.9,6.5,17.9,11.6
	c5.2,5,9.1,11.1,11.6,17.9c2.2,5.5,4.7,13.7,5.4,28.9c0.7,16.4,0.9,21.3,0.9,62.9s-0.2,46.5-0.9,62.9c-0.7,15.2-3.2,23.4-5.4,28.9
	c-5.3,13.6-15.9,24.3-29.5,29.5c-5.5,2.2-13.7,4.7-28.9,5.4c-16.4,0.7-21.3,0.9-62.9,0.9s-46.5-0.2-62.9-0.9
	c-15.2-0.7-23.4-3.2-28.9-5.4c-6.7-2.5-12.9-6.5-17.9-11.6c-5.2-5-9.1-11.1-11.6-17.9c-2.2-5.5-4.7-13.7-5.4-28.9
	c-0.7-16.4-0.9-21.3-0.9-62.9s0.2-46.5,0.9-62.9c0.7-15.2,3.2-23.4,5.4-28.9c2.5-6.7,6.5-12.9,11.6-17.9c5-5.2,11.1-9.1,17.9-11.6
	c5.5-2.2,13.7-4.7,28.9-5.4C209.6,128.5,214.4,128.4,256,128.4 M256,100.3c-42.3,0-47.6,0.2-64.2,0.9c-16.6,0.7-27.9,3.4-37.8,7.2
	c-10.4,3.9-19.8,10-27.6,18c-8,7.7-14.1,17.2-18,27.6c-3.8,9.9-6.5,21.2-7.2,37.8c-0.7,16.6-0.9,21.9-0.9,64.2s0.2,47.6,0.9,64.2
	c0.7,16.6,3.4,27.9,7.2,37.8c3.9,10.4,10,19.8,18,27.6c7.8,7.9,17.2,14,27.6,17.9c9.9,3.8,21.2,6.5,37.8,7.2s21.9,0.9,64.2,0.9
	s47.6-0.2,64.2-0.9c16.6-0.7,27.9-3.4,37.8-7.2c20.9-8.1,37.5-24.6,45.6-45.6c3.8-9.9,6.5-21.2,7.2-37.8s0.9-21.9,0.9-64.2
	s-0.2-47.6-0.9-64.2c-0.7-16.6-3.4-27.9-7.2-37.8c-3.9-10.4-10-19.8-18-27.6c-7.8-7.9-17.2-14-27.6-18c-9.9-3.8-21.2-6.5-37.8-7.2
	C303.6,100.5,298.3,100.3,256,100.3L256,100.3L256,100.3z"/>
<path class="st0" d="M256,176c-44.1,0-80,35.8-80,80s35.8,80,80,80s80-35.8,80-80l0,0C336,211.9,300.2,176,256,176z M256,307.9
	c-28.7,0-51.9-23.2-51.9-51.9s23.2-51.9,51.9-51.9S308,227.3,308,256S284.7,307.9,256,307.9z"/>
<circle class="st0" cx="339.2" cy="172.9" r="18.7"/>
</svg>
