<?xml version="1.0" encoding="utf-8"?>
<!-- Generator: Adobe Illustrator 22.1.0, SVG Export Plug-In . SVG Version: 6.00 Build 0)  -->
<svg version="1.1" id="Ebene_1" xmlns="http://www.w3.org/2000/svg" xmlns:xlink="http://www.w3.org/1999/xlink" x="0px" y="0px"
	 viewBox="0 0 24 24" style="enable-background:new 0 0 24 24;" xml:space="preserve">
<style type="text/css">
	.st0{fill:#FFFFFF;}
</style>
<path class="st0" d="M7.8,5h0.8l0.6,2.2L9.7,5h0.9l-1,3.2v2.2H8.8V8.2L7.8,5z M11.6,6.4c-0.6,0-1.1,0.4-1.1,1v1.9c0,0.7,0.3,1,1.1,1
	c0.6,0,1-0.4,1-1V7.5C12.7,6.8,12.2,6.4,11.6,6.4z M11.9,9.4c0,0.2-0.1,0.3-0.3,0.3c-0.2,0-0.3-0.2-0.3-0.3V7.5
	c0-0.2,0.1-0.4,0.3-0.4c0.2,0,0.3,0.2,0.3,0.4V9.4z M14.6,6.4v3c-0.1,0.1-0.3,0.3-0.4,0.3c-0.2,0-0.2-0.1-0.2-0.3v-3h-0.8v3.3
	c0,0.4,0.1,0.7,0.5,0.7c0.2,0,0.5-0.1,0.9-0.5v0.5h0.8v-4H14.6z M15.9,14.5c-0.2,0-0.3,0.2-0.3,0.5v0.4h0.6V15
	C16.2,14.7,16.2,14.5,15.9,14.5z M13.2,14.5c-0.1,0-0.1,0.1-0.2,0.1V17c0.1,0.1,0.1,0.1,0.2,0.1c0.1,0.1,0.3,0.1,0.3-0.1
	c0.1-0.1,0.1-0.1,0.1-0.2v-2c0-0.1,0-0.2-0.1-0.3C13.5,14.5,13.3,14.5,13.2,14.5z M16,11.5c-1.5-0.1-6.4-0.1-7.9,0
	c-1.6,0.1-1.9,1.1-1.9,3.7s0.2,3.6,1.9,3.7c1.5,0.1,6.5,0.1,8,0c1.6-0.1,1.8-1.1,1.9-3.7C17.8,12.6,17.6,11.6,16,11.5z M8.8,17.7H8
	v-4.4H7.2v-0.8h2.4v0.8H8.8V17.7L8.8,17.7z M11.7,17.7H11v-0.4c-0.1,0.2-0.3,0.3-0.4,0.3c-0.4,0.2-0.9,0.2-0.9-0.6v-3.1h0.7v2.9
	c0,0.2,0.1,0.2,0.2,0.2c0.1,0,0.3-0.2,0.4-0.3v-2.9h0.7V17.7L11.7,17.7z M14.3,17c0,0.5-0.2,0.8-0.6,0.8c-0.2,0-0.5-0.1-0.6-0.3v0.3
	h-0.7v-5.1h0.7v1.6c0.2-0.2,0.3-0.3,0.6-0.3c0.5,0,0.7,0.4,0.7,0.9L14.3,17L14.3,17z M17,15.9h-1.3v0.7c0,0.3,0,0.5,0.3,0.5
	c0.3,0,0.3-0.2,0.3-0.5v-0.3h0.7v0.3c0,0.8-0.3,1.2-1,1.2c-0.7,0-1-0.5-1-1.2V15c0-0.6,0.4-1.1,1-1.1c0.7,0,1,0.4,1,1.1L17,15.9
	L17,15.9z"/>
</svg>
