<?xml version="1.0" encoding="utf-8"?>
<!-- Generator: Adobe Illustrator 21.1.0, SVG Export Plug-In . SVG Version: 6.00 Build 0)  -->
<svg version="1.1" id="Ebene_1" xmlns="http://www.w3.org/2000/svg" xmlns:xlink="http://www.w3.org/1999/xlink" x="0px" y="0px"
	 viewBox="0 0 500 250" style="enable-background:new 0 0 500 250;" xml:space="preserve">
<style type="text/css">
	.st0{fill:#C6C6C6;}
	.st1{fill:#FFFFFF;}
</style>
<polygon class="st0" points="221.4,155.2 221.4,50.2 278.3,35.9 278.3,155.2 "/>
<polygon class="st0" points="15.9,155.2 15.9,65.5 104.5,21.2 104.5,155.2 "/>
<g>
	<path class="st1" d="M15.9,172h27.1v8.2H25.7v9.9h14.8v8.2H25.7V215h-9.7V172z"/>
	<path class="st1" d="M68,204.8H54.8L52.2,215h-9.9L55.8,172h11.6L80.9,215H70.6L68,204.8z M66,197.2l-1.1-4
		c-1.2-4.3-2.3-9.3-3.5-13.8h-0.3c-1,4.5-2.2,9.5-3.4,13.8l-1.1,4H66z"/>
	<path class="st1" d="M85.4,172h9.7v17.6h0.2l12.8-17.6h10.6l-13,17.1l15.4,25.8h-10.7l-10.4-18.1l-5,6.6V215h-9.7V172z"/>
	<path class="st1" d="M124.4,172h9.7v24c0,8.4,2.6,11.3,7.4,11.3c4.8,0,7.6-2.9,7.6-11.3v-24h9.3v23c0,14.4-5.9,20.7-17,20.7
		c-11.1,0-17.1-6.3-17.1-20.7V172z"/>
	<path class="st1" d="M168.2,172h9.7v34.8h16.9v8.2h-26.7V172z"/>
	<path class="st1" d="M202.7,180.2h-11.8V172h33.3v8.2h-11.8V215h-9.7V180.2z"/>
	<path class="st1" d="M248.4,204.8h-13.2l-2.6,10.2h-9.9l13.5-42.9h11.6l13.5,42.9h-10.3L248.4,204.8z M230.6,164.3
		c0-2.6,1.9-4.6,4.6-4.6c2.7,0,4.6,2,4.6,4.6c0,2.6-1.9,4.6-4.6,4.6C232.6,168.9,230.6,166.9,230.6,164.3z M246.4,197.2l-1.1-4
		c-1.2-4.3-2.3-9.3-3.5-13.8h-0.3c-1,4.5-2.2,9.5-3.4,13.8l-1.1,4H246.4z M243.7,164.3c0-2.6,1.8-4.6,4.5-4.6c2.8,0,4.6,2,4.6,4.6
		c0,2.6-1.8,4.6-4.6,4.6C245.6,168.9,243.7,166.9,243.7,164.3z"/>
	<path class="st1" d="M271.6,180.2h-11.8V172h33.3v8.2h-11.8V215h-9.7V180.2z"/>
	<path class="st1" d="M300.9,202.9c3,2.6,7,4.5,10.5,4.5c4,0,6-1.6,6-4.1c0-2.7-2.4-3.6-6.2-5.1l-5.5-2.4c-4.5-1.8-8.7-5.5-8.7-11.7
		c0-7.1,6.4-12.8,15.3-12.8c4.9,0,10.1,2,13.8,5.7l-4.9,6.1c-2.8-2.2-5.5-3.4-9-3.4c-3.3,0-5.5,1.4-5.5,3.9c0,2.6,2.8,3.6,6.6,5.1
		l5.5,2.2c5.2,2.1,8.5,5.6,8.5,11.7c0,7.1-5.9,13.3-16.1,13.3c-5.6,0-11.5-2.1-15.9-6.2L300.9,202.9z"/>
	<path class="st1" d="M334.5,172h14.7c9,0,15.9,2.4,15.9,10.7c0,3.8-2.2,8-7.2,9.3v0.3c6.1,1.1,9.4,4.3,9.4,10.1
		c0,8.8-7.4,12.6-16.7,12.6h-15.9V172z M348.8,189.4c4.7,0,6.8-2,6.8-5.3c0-3.2-2.2-4.5-6.7-4.5h-4.6v9.8H348.8z M349.7,207.5
		c5.3,0,8-2,8-5.9c0-3.8-2.7-5.4-8-5.4h-5.4v11.3H349.7z"/>
	<path class="st1" d="M374.3,172h9.7v34.8H401v8.2h-26.7V172z"/>
	<path class="st1" d="M403.9,193.3c0-14,8-22.1,19.5-22.1c11.6,0,19.5,8.1,19.5,22.1c0,14-7.9,22.5-19.5,22.5
		C411.8,215.8,403.9,207.3,403.9,193.3z M432.9,193.3c0-8.6-3.7-13.7-9.5-13.7c-5.8,0-9.5,5.1-9.5,13.7c0,8.6,3.8,14.1,9.5,14.1
		C429.2,207.4,432.9,201.9,432.9,193.3z"/>
	<path class="st1" d="M470,171.2c6.1,0,10.5,2.7,13.4,5.6l-5.3,6c-2.2-2-4.2-3.2-7.9-3.2c-6.6,0-11.3,5.2-11.3,13.8
		c0,8.8,4,14,12.1,14c1.7,0,3.5-0.5,4.5-1.3v-7.4h-7.1v-7.9h15.7v19.8c-3.1,2.7-8.4,5.2-14.4,5.2c-11.6,0-20.8-7.6-20.8-22
		C448.9,179.5,458.3,171.2,470,171.2z"/>
</g>
<polygon class="st1" points="110.8,155.2 110.8,20.3 215.1,50.1 215.1,155.2 "/>
<polygon class="st1" points="284.7,155.2 284.7,36.2 483.8,97.5 483.8,155.2 "/>
</svg>
