<?xml version="1.0" encoding="utf-8"?>
<!-- Generator: Adobe Illustrator 21.1.0, SVG Export Plug-In . SVG Version: 6.00 Build 0)  -->
<svg version="1.1" id="Ebene_1" xmlns="http://www.w3.org/2000/svg" xmlns:xlink="http://www.w3.org/1999/xlink" x="0px" y="0px"
	 viewBox="0 0 1400 595.3" style="enable-background:new 0 0 1400 595.3;" xml:space="preserve">
<style type="text/css">
	.st0{fill:#FFFFFF;}
	.st1{fill:#FFFFFF;stroke:#727777;stroke-width:0.5167;}
</style>
<g>
	<g>
		<path class="st0" d="M1020.1,204.5c0,33.4,27,60.4,60.4,60.4c33.4,0,60.4-27,60.4-60.4c0-33.3-27-60.4-60.4-60.4
			C1047.1,144.1,1020.1,171.1,1020.1,204.5"/>
		<path class="st0" d="M1357.1,363.9c-55.2,95.5-158.4,159.7-276.6,159.7c-117.9,0-220.9-63.9-276.2-159.1l52.3-30.3
			c44.8,77.1,128.3,129,223.9,129c95.9,0,179.5-52.1,224.2-129.5L1357.1,363.9z"/>
		<path class="st0" d="M1305.5,144.3c5.1,19.2,7.8,39.3,7.8,60.1c0,128.6-104.3,232.9-232.9,232.9c-64.3,0-122.6-26.1-164.8-68.3
			l42.7-42.7c31.2,31.2,74.4,50.6,122,50.6c95.3,0,172.5-77.2,172.5-172.5c0-15.4-2-30.3-5.8-44.6L1305.5,144.3z"/>
		<path class="st0" d="M1118.8,62.9c62.4,16.9,108.3,73.8,108.3,141.6c0,81-65.7,146.6-146.7,146.6c-13.1,0-25.8-1.7-37.9-4.9
			l15.6-58.4c7.1,1.9,14.6,2.9,22.3,2.9c47.6,0,86.2-38.6,86.2-86.2c0-39.8-27-73.4-63.7-83.3L1118.8,62.9z"/>
		<g>
			<path class="st0" d="M61.2,155.3v-49.8h6.4V127H85v-21.5h6.3v49.8H85v-22.8H67.5v22.8H61.2z"/>
			<path class="st0" d="M107.2,137.1v-16.4c0-9.9,5.1-16.3,15.7-16.3c10.6,0,15.7,6.4,15.7,16.3v16.4c0,13.8-5.1,19.3-15.7,19.3
				C112.3,156.4,107.2,150.9,107.2,137.1z M132,137.4v-16.8c0-10.4-7.2-10.8-9.2-10.8c-2,0-9.2,0.3-9.2,10.8v16.8
				c0,10.9,3.2,13.7,9.2,13.7C128.9,151.1,132,148.3,132,137.4z"/>
			<path class="st0" d="M176,119.2c0.1-2.8-0.1-5.7-1.4-7.2c-1.3-1.6-4.3-2.1-5.6-2.1c-5.2,0-7.3,3.2-7.5,3.9
				c-0.2,0.6-1.4,1.8-1.4,10.4v13.3c0,12.2,4,13.7,8.9,13.7c1.9,0,7.8-0.7,7.9-10.4h6.6c0.3,15.7-10.8,15.7-14.1,15.7
				c-6.2,0-15.7-0.4-15.7-19.7v-14.1c0-14.1,6.2-18.1,16-18.1c9.9,0,13.7,5.1,13,14.8H176z"/>
			<path class="st0" d="M197.3,155.3v-49.8h6.4V127h17.5v-21.5h6.3v49.8h-6.3v-22.8h-17.5v22.8H197.3z"/>
			<path class="st0" d="M248.3,140.5v1.4c0,6.8,4.3,8.9,8.4,8.9c5,0,8.9-2.1,8.9-8.1c0-11-22.4-9.8-22.4-24.8
				c0-8.8,6.3-13.5,14.6-13.5c9.1,0,14.2,4.4,13.8,14.6H265c0.1-5.5-1.7-9-7.7-9c-3.8,0-7.7,1.9-7.7,7.3c0,11,22.4,9.4,22.4,25.2
				c0,10.5-7.2,13.9-15.5,13.9c-14.7,0.1-14.7-11.1-14.6-15.9H248.3z"/>
			<path class="st0" d="M308.3,119.2c0.1-2.8-0.1-5.7-1.4-7.2c-1.3-1.6-4.3-2.1-5.6-2.1c-5.2,0-7.3,3.2-7.5,3.9
				c-0.2,0.6-1.5,1.8-1.5,10.4v13.3c0,12.2,4,13.7,8.9,13.7c1.9,0,7.8-0.7,7.9-10.4h6.6c0.3,15.7-10.8,15.7-14.1,15.7
				c-6.2,0-15.7-0.4-15.7-19.7v-14.1c0-14.1,6.2-18.1,16-18.1c9.9,0,13.7,5.1,13,14.8H308.3z"/>
			<path class="st0" d="M329.6,155.3v-49.8h6.4V127h17.5v-21.5h6.4v49.8h-6.4v-22.8H336v22.8H329.6z"/>
		</g>
		<g>
			<path class="st0" d="M375.7,105.5h6.3v31.9c0,10.9,3.3,13.7,9.3,13.7c6,0,9.3-2.8,9.3-13.7v-31.9h6.3v31.6
				c0,13.8-5.1,19.3-15.7,19.3c-10.6,0-15.7-5.5-15.7-19.3V105.5z"/>
			<path class="st0" d="M422.7,155.3v-49.8h6.3v44.3h18.3v5.5H422.7z"/>
		</g>
		<g>
			<path class="st0" d="M458.1,155.3v-49.8h25.7v5.5h-19.3v16h17.9v5.5h-17.9v17.3h19.7v5.5H458.1z"/>
		</g>
		<g>
			<path class="st0" d="M61,224.3v-49.8h24.7v5.5H67.4v16h17.4v5.5H67.4v22.8H61z"/>
			<path class="st0" d="M94,174.5h6.3v31.9c0,10.9,3.3,13.7,9.3,13.7c6,0,9.3-2.8,9.3-13.7v-31.9h6.3v31.6
				c0,13.8-5.1,19.3-15.7,19.3c-10.6,0-15.7-5.5-15.7-19.3V174.5z"/>
			<path class="st0" d="M144.6,201.4v22.9h-6.4v-49.8h17.2c8.8,0,11.9,6.2,11.9,12.4c0,5.9-3.2,10.3-9.1,11.4v0.1
				c5.7,0.9,7.8,2.8,8.1,12.8c0.1,2.1,0.8,9.9,1.7,13h-6.6c-1.8-3.5-1.4-9.9-1.9-16.6c-0.5-6.1-5.4-6.4-7.5-6.4H144.6z M144.6,195.9
				h9.5c4.6,0,6.8-3.9,6.8-8.3c0-3.6-1.8-7.6-6.7-7.6h-9.6V195.9z"/>
			<path class="st0" d="M206.8,174.5v5.5h-13.1v44.3h-6.3V180h-13.1v-5.5H206.8z"/>
			<path class="st0" d="M210.2,174.5h6.8l9.4,43.2h0.1l10-43.2h8.2l9,43.2h0.1l10.1-43.2h6.6l-13.2,49.8h-7.7l-9.5-43.2h-0.1
				L230,224.3h-7.7L210.2,174.5z"/>
			<path class="st0" d="M287.5,174.5h8.1l16.2,49.8h-7.1l-3.6-11.9h-19.3l-3.7,11.9h-6.4L287.5,174.5z M291.4,180.4h-0.1l-7.8,26.6
				h15.9L291.4,180.4z"/>
			<path class="st0" d="M355,174.5v49.8h-8.7l-19.7-43.2h-0.1v43.2h-5.7v-49.8h9l19.4,42.7h0.1v-42.7H355z"/>
			<path class="st0" d="M392.5,187.8c0-5.9-2.4-9-8.8-9c-2,0-9.2,0.3-9.2,10.8v16.8c0,10.9,3.2,13.7,9.2,13.7c4.6,0,7.6-1.2,8.9-2.2
				v-14.9h-9.2v-5.5h15.5v24.2c-4.1,2.2-8.8,3.7-15.3,3.7c-10.6,0-15.7-5.5-15.7-19.3v-16.4c0-9.9,5.1-16.3,15.7-16.3
				c10.8,0,15.9,3.9,15.5,14.4H392.5z"/>
			<path class="st0" d="M412.8,224.3v-49.8h25.7v5.5h-19.3v16h17.9v5.5h-17.9v17.3h19.7v5.5H412.8z"/>
			<path class="st0" d="M483.9,174.5v49.8h-8.7l-19.7-43.2h-0.1v43.2h-5.7v-49.8h9l19.4,42.7h0.1v-42.7H483.9z"/>
		</g>
		<g>
			<path class="st0" d="M131.5,243.5h6.3v31.9c0,10.9,3.3,13.7,9.3,13.7c6,0,9.3-2.8,9.3-13.7v-31.9h6.3v31.6
				c0,13.8-5.1,19.3-15.7,19.3c-10.6,0-15.7-5.5-15.7-19.3V243.5z"/>
			<path class="st0" d="M210.4,243.5v49.8h-8.7l-19.7-43.2h-0.1v43.2h-5.7v-49.8h9l19.4,42.7h0.1v-42.7H210.4z"/>
			<path class="st0" d="M231.2,293.4h-6.4v-49.8h6.4V293.4z"/>
			<path class="st0" d="M262.6,293.4H255l-14.4-49.8h6.9l11.4,43.8h0.1l11.7-43.8h6.5L262.6,293.4z"/>
			<path class="st0" d="M285.7,293.4v-49.8h25.7v5.5H292v16H310v5.5H292v17.3h19.7v5.5H285.7z"/>
			<path class="st0" d="M328.4,270.4v22.9H322v-49.8h17.2c8.8,0,11.9,6.2,11.9,12.4c0,5.9-3.2,10.3-9.1,11.4v0.1
				c5.7,0.9,7.8,2.8,8.1,12.8c0.1,2.1,0.8,9.9,1.7,13h-6.6c-1.8-3.5-1.4-9.9-1.9-16.6c-0.5-6.1-5.4-6.4-7.5-6.4H328.4z M328.4,264.9
				h9.5c4.6,0,6.8-3.9,6.8-8.3c0-3.6-1.8-7.6-6.7-7.6h-9.6V264.9z"/>
			<path class="st0" d="M367.4,278.5v1.4c0,6.8,4.3,8.9,8.4,8.9c5,0,8.9-2.1,8.9-8.1c0-11-22.4-9.8-22.4-24.8
				c0-8.8,6.3-13.5,14.6-13.5c9.1,0,14.2,4.4,13.8,14.6h-6.6c0.1-5.5-1.7-9-7.7-9c-3.8,0-7.7,1.9-7.7,7.3c0,11,22.4,9.4,22.4,25.2
				c0,10.5-7.2,13.9-15.5,13.9c-14.7,0.1-14.7-11.1-14.6-15.9H367.4z"/>
			<path class="st0" d="M410.2,293.4h-6.4v-49.8h6.4V293.4z"/>
			<path class="st0" d="M452.2,243.5v5.5h-13.1v44.3h-6.3V249h-13.1v-5.5H452.2z"/>
			<path class="st0" d="M482.6,243.5h6.4l-13.6,30.9v19h-6.4v-19l-13.4-30.9h7.1l9.7,24.1L482.6,243.5z"/>
		</g>
		<polygon class="st0" points="562.4,295.3 562.4,102.2 587,102.2 587,185.7 654.7,185.7 654.7,102.2 679.3,102.2 679.3,295.3 
			654.7,295.3 654.7,207.1 587,207.1 587,295.3 		"/>
		<polygon class="st0" points="713.3,295.3 713.3,102.2 809.1,102.2 809.1,123.6 737.9,123.6 737.9,185.7 805.3,185.7 805.3,207.1 
			737.9,207.1 737.9,295.3 		"/>
		<path class="st0" d="M829.5,102.2h24.6v123.6c0,42.3,12.9,53,36.1,53s36.1-10.7,36.1-53V102.2H951v122.5
			c0,53.5-19.8,74.6-60.7,74.6c-40.9,0-60.7-21.1-60.7-74.6V102.2z"/>
		<line class="st1" x1="521.4" y1="102" x2="521.4" y2="295.6"/>
	</g>
</g>
</svg>
