<svg id="Ebene_1" data-name="Ebene 1" xmlns="http://www.w3.org/2000/svg" viewBox="0 0 150 150"><defs><style>.cls-1{fill:#fff;}</style></defs><title>vimeo</title><path class="cls-1" d="M105.32,61.92q-.48,10.4-14.53,28.49Q76.25,109.29,66.2,109.29q-6.23,0-10.54-11.5L49.9,76.7Q46.7,65.2,43,65.2q-.8,0-5.59,3.36l-3.35-4.32Q39.37,59.6,44.49,55q7-6.08,10.56-6.4,8.32-.8,10.24,11.37,2.08,13.13,2.88,16.33,2.4,10.9,5.28,10.89,2.23,0,6.72-7.07T85,69.33q.64-6.1-4.8-6.1A13.36,13.36,0,0,0,74.9,64.4Q80.15,47.19,95,47.67,105.95,48,105.32,61.92Z"/></svg>